HIERARCHY
ROOT pelvis
{
	OFFSET 0.000000 0.000000 0.748829
	CHANNELS 6 Xposition Yposition Zposition Xrotation Yrotation Zrotation
	JOINT spine
	{
		OFFSET 0.000000 0.000000 0.000000
		CHANNELS 6 Xposition Yposition Zposition Xrotation Yrotation Zrotation
		JOINT spine.001
		{
			OFFSET 0.000000 -0.012711 0.242547
			CHANNELS 3 Xrotation Yrotation Zrotation
			JOINT neck
			{
				OFFSET 0.000000 0.029600 0.241069
				CHANNELS 6 Xposition Yposition Zposition Xrotation Yrotation Zrotation
				JOINT face
				{
					OFFSET 0.000000 0.003552 0.203504
					CHANNELS 6 Xposition Yposition Zposition Xrotation Yrotation Zrotation
					End Site
					{
						OFFSET 0.000000 -0.039915 -0.007358
					}
				}
			}
			JOINT shoulder.L
			{
				OFFSET 0.000000 0.029600 0.241069
				CHANNELS 6 Xposition Yposition Zposition Yrotation Xrotation Zrotation
				JOINT upper_arm.L
				{
					OFFSET 0.165745 0.000000 0.000000
					CHANNELS 6 Xposition Yposition Zposition Xrotation Yrotation Zrotation
					JOINT forearm.L
					{
						OFFSET 0.270234 0.000113 0.000934
						CHANNELS 6 Xposition Yposition Zposition Xrotation Yrotation Zrotation
						End Site
						{
							OFFSET 0.221268 -0.003759 -0.001285
						}
					}
				}
			}
			JOINT shoulder.R
			{
				OFFSET 0.000000 0.029600 0.241069
				CHANNELS 6 Xposition Yposition Zposition Yrotation Xrotation Zrotation
				JOINT upper_arm.R
				{
					OFFSET -0.165745 0.000000 0.000000
					CHANNELS 6 Xposition Yposition Zposition Xrotation Yrotation Zrotation
					JOINT forearm.R
					{
						OFFSET -0.269488 0.000113 0.000934
						CHANNELS 6 Xposition Yposition Zposition Xrotation Yrotation Zrotation
						End Site
						{
							OFFSET -0.227797 -0.003873 -0.001286
						}
					}
				}
			}
		}
	}
	JOINT pelvis.L
	{
		OFFSET 0.000000 0.000000 0.000000
		CHANNELS 6 Xposition Yposition Zposition Yrotation Xrotation Zrotation
		End Site
		{
			OFFSET 0.099755 0.000000 0.000000
		}
	}
	JOINT pelvis.R
	{
		OFFSET 0.000000 0.000000 0.000000
		CHANNELS 6 Xposition Yposition Zposition Yrotation Xrotation Zrotation
		End Site
		{
			OFFSET -0.099755 0.000000 0.000000
		}
	}
	JOINT thigh.L
	{
		OFFSET 0.099755 0.000000 0.000000
		CHANNELS 6 Xposition Yposition Zposition Xrotation Yrotation Zrotation
		JOINT shin.L
		{
			OFFSET 0.019080 0.000000 -0.364061
			CHANNELS 6 Xposition Yposition Zposition Xrotation Yrotation Zrotation
			JOINT foot.L
			{
				OFFSET 0.016961 0.000000 -0.323630
				CHANNELS 3 Xrotation Yrotation Zrotation
				End Site
				{
					OFFSET 0.014846 -0.151372 -0.063564
				}
			}
			JOINT heel.02.L
			{
				OFFSET 0.016961 0.000000 -0.323630
				CHANNELS 3 Xrotation Yrotation Zrotation
				End Site
				{
					OFFSET 0.079219 0.033575 -0.056125
				}
			}
		}
	}
	JOINT thigh.R
	{
		OFFSET -0.099755 0.000000 0.000000
		CHANNELS 6 Xposition Yposition Zposition Xrotation Yrotation Zrotation
		JOINT shin.R
		{
			OFFSET -0.018152 0.000000 -0.346363
			CHANNELS 6 Xposition Yposition Zposition Xrotation Yrotation Zrotation
			JOINT foot.R
			{
				OFFSET -0.017218 0.000000 -0.328535
				CHANNELS 3 Xrotation Yrotation Zrotation
				End Site
				{
					OFFSET -0.015855 -0.161660 -0.067884
				}
			}
			JOINT heel.02.R
			{
				OFFSET -0.017218 0.000000 -0.328535
				CHANNELS 3 Xrotation Yrotation Zrotation
				End Site
				{
					OFFSET -0.078862 0.033575 -0.068972
				}
			}
		}
	}
}
MOTION
Frames: 9
Frame Time: 0.041667
-0.012680 -0.024247 0.736310 -0.000000 0.000000 -10.434942 -0.000000 0.000000 0.000000 -11.578149 -0.248433 -0.038411 9.991164 0.350678 2.857271 -0.000000 0.029599 0.241069 10.213645 0.367575 2.096161 -0.000000 0.003552 0.203504 -0.633183 -0.000000 0.000001 -0.000000 0.029599 0.241069 1.022775 0.001123 -0.125614 0.165745 0.000000 -0.000000 17.613924 78.378654 -21.538042 0.270234 0.000113 0.000934 1.334214 8.422456 -17.365269 -0.000000 0.029599 0.241069 1.072968 0.001235 -0.131804 -0.165745 -0.000000 0.000000 26.482605 -80.152379 31.261906 -0.269488 0.000113 0.000934 1.082118 -10.157421 10.861582 0.000000 -0.000000 0.000000 -1.156535 -0.000000 0.000026 0.000000 -0.000000 0.000000 -1.156536 -0.000000 0.000000 0.099734 0.000000 0.002014 10.030952 3.827275 0.191371 0.019080 0.000000 -0.364061 -3.365447 -4.238462 -0.300414 -6.810474 -4.218951 7.126253 -20.514391 48.720538 42.156891 -0.099734 0.000000 -0.002013 6.744186 -4.659345 -0.079335 -0.018152 -0.000000 -0.346363 -2.613749 4.449355 0.238072 -6.712289 1.533476 -1.743513 -9.343386 -44.545814 -31.647449 
-0.012766 -0.024206 0.736404 -0.000000 0.000000 -10.403240 0.000000 0.000000 -0.000000 -11.577613 -0.246400 -0.038096 9.991449 0.345335 2.813618 -0.000000 0.029600 0.241069 10.224484 0.398069 2.100860 -0.000000 0.003552 0.203504 -0.646817 -0.000000 0.000001 -0.000000 0.029599 0.241069 1.025995 0.001129 -0.125993 0.165745 0.000000 -0.000000 17.559716 78.378968 -21.472269 0.270234 0.000113 0.000934 1.333123 8.440819 -17.304744 -0.000000 0.029599 0.241069 1.076188 0.001241 -0.132183 -0.165745 -0.000000 -0.000000 26.604709 -80.145344 31.407512 -0.269488 0.000113 0.000934 1.085761 -10.196720 10.852055 0.000000 -0.000000 0.000000 -1.159480 -0.000000 -0.000012 0.000000 -0.000000 0.000000 -1.159480 -0.000000 -0.000001 0.099734 0.000000 0.002019 10.013233 3.809238 0.192614 0.019080 0.000000 -0.364061 -3.352635 -4.224733 -0.298869 -6.797692 -4.203040 7.099072 -20.492489 48.704184 42.123973 -0.099734 -0.000000 -0.002018 6.740970 -4.673063 -0.078486 -0.018152 -0.000000 -0.346363 -2.603557 4.458802 0.237359 -6.728769 1.542600 -1.757925 -9.360190 -44.564843 -31.665826 
-0.012855 -0.024140 0.736514 -0.000000 0.000000 -10.373884 -0.000000 0.000000 -0.000000 -11.573112 -0.243626 -0.037656 9.991732 0.339993 2.770064 -0.000000 0.029600 0.241069 10.227339 0.428003 2.106670 -0.000000 0.003552 0.203504 -0.658088 0.000000 -0.000001 -0.000000 0.029600 0.241069 1.029590 0.001136 -0.126385 0.165745 0.000000 -0.000000 17.480197 78.380710 -21.375321 0.270234 0.000113 0.000934 1.333654 8.463535 -17.257054 -0.000000 0.029600 0.241069 1.079784 0.001249 -0.132586 -0.165745 -0.000000 -0.000000 26.732358 -80.141355 31.557953 -0.269488 0.000113 0.000934 1.088905 -10.231637 10.842554 -0.000000 -0.000000 -0.000000 -1.169445 -0.000000 -0.000020 0.000000 -0.000000 -0.000000 -1.169479 -0.000000 -0.000001 0.099734 0.000000 0.002036 9.988587 3.789077 0.193903 0.019080 0.000000 -0.364061 -3.330777 -4.208696 -0.296459 -6.781521 -4.186600 7.072019 -20.467138 48.686579 42.093103 -0.099734 -0.000000 -0.002036 6.732778 -4.688660 -0.077471 -0.018152 -0.000000 -0.346363 -2.588513 4.471663 0.236277 -6.744198 1.550785 -1.770690 -9.381665 -44.591208 -31.693393 
-0.012930 -0.024083 0.736617 -0.000000 0.000000 -10.353962 -0.000000 0.000000 0.000000 -11.568044 -0.242413 -0.037458 9.991918 0.336851 2.744594 -0.000000 0.029600 0.241069 10.228434 0.451813 2.104402 -0.000000 0.003552 0.203504 -0.667050 -0.000000 -0.000000 -0.000000 0.029600 0.241069 1.028595 0.001136 -0.126319 0.165745 -0.000000 0.000000 17.384042 78.384071 -21.257673 0.270234 0.000113 0.000934 1.336541 8.490373 -17.233228 -0.000000 0.029600 0.241070 1.078787 0.001250 -0.132471 -0.165745 0.000000 0.000000 26.832881 -80.143630 31.673479 -0.269488 0.000113 0.000934 1.089243 -10.243601 10.830619 0.000000 0.000000 0.000000 -1.183621 0.000000 0.000021 0.000000 0.000000 0.000000 -1.183621 0.000000 0.000003 0.099733 0.000000 0.002061 9.967015 3.773515 0.194840 0.019080 0.000000 -0.364061 -3.313029 -4.196314 -0.294518 -6.759689 -4.173836 7.054379 -20.446578 48.673267 42.073422 -0.099733 -0.000000 -0.002061 6.723629 -4.702260 -0.076563 -0.018152 -0.000000 -0.346363 -2.573875 4.481745 0.235166 -6.759822 1.556910 -1.779214 -9.399402 -44.616681 -31.723445 
-0.012989 -0.024046 0.736681 -0.000000 0.000000 -10.343401 0.000000 0.000000 0.000000 -11.565129 -0.243409 -0.037606 9.991889 0.336303 2.739969 0.000000 0.029600 0.241069 10.234907 0.469266 2.090860 -0.000000 0.003552 0.203504 -0.675520 -0.000000 -0.000001 0.000000 0.029600 0.241069 1.020774 0.001117 -0.125365 0.165745 0.000000 -0.000000 17.282926 78.389214 -21.133360 0.270234 0.000113 0.000934 1.341807 8.520180 -17.236035 0.000000 0.029600 0.241069 1.070966 0.001230 -0.131519 -0.165745 0.000000 0.000000 26.907805 -80.151423 31.756422 -0.269488 0.000113 0.000934 1.085781 -10.226973 10.811966 0.000000 -0.000000 0.000000 -1.194818 -0.000000 0.000029 0.000000 -0.000000 0.000000 -1.194818 -0.000000 -0.000001 0.099733 0.000000 0.002080 9.955282 3.764063 0.195434 0.019080 0.000000 -0.364061 -3.310687 -4.188624 -0.294092 -6.730932 -4.165476 7.048038 -20.432822 48.666034 42.069526 -0.099733 -0.000000 -0.002080 6.716443 -4.712156 -0.075897 -0.018152 -0.000000 -0.346363 -2.562744 4.485558 0.234231 -6.778116 1.561471 -1.783899 -9.409515 -44.635539 -31.749216 
-0.013050 -0.024001 0.736708 -0.000000 0.000000 -10.334343 0.000000 0.000000 -0.000000 -11.559645 -0.242377 -0.037433 9.992014 0.334961 2.728941 0.000000 0.029600 0.241069 10.235354 0.482865 2.078856 -0.000000 0.003552 0.203504 -0.684809 -0.000000 -0.000001 0.000000 0.029600 0.241069 1.017366 0.001108 -0.124960 0.165745 0.000000 -0.000000 17.173150 78.388490 -21.000644 0.270234 0.000113 0.000934 1.347893 8.550922 -17.248091 0.000000 0.029600 0.241069 1.067599 0.001221 -0.131091 -0.165745 0.000000 0.000000 26.976507 -80.160985 31.831123 -0.269488 0.000113 0.000934 1.083613 -10.214673 10.802782 0.000000 0.000000 -0.000000 -1.197113 -0.000000 -0.000020 0.000000 0.000000 -0.000000 -1.197112 -0.000000 0.000001 0.099733 0.000000 0.002084 9.945532 3.755270 0.196009 0.019080 0.000000 -0.364061 -3.310161 -4.180883 -0.293823 -6.707450 -4.158705 7.042979 -20.410945 48.655023 42.065868 -0.099733 0.000000 -0.002084 6.708913 -4.722587 -0.075200 -0.018152 0.000000 -0.346363 -2.552176 4.488958 0.233341 -6.796698 1.565787 -1.788001 -9.416726 -44.648667 -31.766933 
-0.013138 -0.023896 0.736732 -0.000000 0.000000 -10.316724 0.000000 0.000000 0.000000 -11.541129 -0.233036 -0.035951 9.992392 0.327665 2.669683 -0.000000 0.029600 0.241069 10.204878 0.494096 2.094780 -0.000000 0.003552 0.203504 -0.696343 0.000000 -0.000002 -0.000000 0.029600 0.241069 1.036648 0.001150 -0.127290 0.165745 0.000000 -0.000000 17.053685 78.367705 -20.863417 0.270234 0.000113 0.000934 1.352159 8.579553 -17.239597 -0.000000 0.029600 0.241069 1.086840 0.001265 -0.133425 -0.165745 0.000000 0.000000 27.061949 -80.166395 31.927453 -0.269488 0.000113 0.000934 1.090760 -10.257277 10.830299 0.000000 0.000000 0.000000 -1.188209 -0.000000 0.000028 0.000000 0.000000 0.000000 -1.188209 -0.000000 -0.000001 0.099733 0.000000 0.002069 9.919830 3.740037 0.196824 0.019080 -0.000000 -0.364061 -3.279093 -4.168196 -0.290698 -6.711452 -4.150163 7.024408 -20.361682 48.625633 42.032933 -0.099733 0.000000 -0.002069 6.694887 -4.740097 -0.074016 -0.018152 -0.000000 -0.346363 -2.535432 4.501924 0.232093 -6.807908 1.572214 -1.798240 -9.430405 -44.662494 -31.778801 
-0.013253 -0.023716 0.736772 -0.000000 0.000000 -10.285616 0.000000 0.000000 0.000000 -11.506983 -0.214597 -0.033044 9.992979 0.313050 2.550457 0.000000 0.029600 0.241069 10.139475 0.503085 2.150898 0.000000 0.003552 0.203504 -0.712937 0.000000 -0.000002 0.000000 0.029599 0.241069 1.080828 0.001252 -0.132724 0.165745 0.000000 0.000000 16.947905 78.323651 -20.751049 0.270234 0.000113 0.000934 1.352950 8.601486 -17.198439 0.000000 0.029599 0.241069 1.131021 0.001373 -0.138916 -0.165745 -0.000000 -0.000000 27.175660 -80.163130 32.061144 -0.269488 0.000113 0.000934 1.108580 -10.364227 10.896845 0.000000 -0.000000 0.000000 -1.170027 -0.000000 -0.000008 0.000000 -0.000000 0.000000 -1.169992 -0.000000 -0.000001 0.099734 -0.000000 0.002037 9.869033 3.715639 0.197922 0.019080 0.000000 -0.364061 -3.201194 -4.148607 -0.283248 -6.751914 -4.138596 6.986568 -20.288519 48.577279 41.959023 -0.099734 0.000000 -0.002037 6.672367 -4.765362 -0.072287 -0.018152 0.000000 -0.346363 -2.510649 4.526196 0.230354 -6.804752 1.582967 -1.820797 -9.455843 -44.683559 -31.791669 
-0.013372 -0.023506 0.736823 -0.000000 0.000000 -10.245518 0.000000 0.000000 0.000000 -11.468996 -0.193766 -0.029769 9.993757 0.295653 2.408637 0.000000 0.029600 0.241069 10.070151 0.509493 2.229495 0.000000 0.003552 0.203504 -0.736829 0.000000 -0.000000 0.000000 0.029600 0.241069 1.129115 0.001367 -0.138665 0.165745 0.000000 0.000000 16.882503 78.273408 -20.689685 0.270234 0.000113 0.000934 1.350988 8.610545 -17.149444 0.000000 0.029600 0.241069 1.179349 0.001490 -0.144834 -0.165745 -0.000000 0.000000 27.289387 -80.152523 32.198833 -0.269488 0.000113 0.000934 1.129368 -10.487172 10.975024 0.000000 0.000000 0.000000 -1.149276 0.000001 0.000052 0.000000 0.000000 0.000000 -1.149276 -0.000000 -0.000001 0.099735 0.000000 0.002001 9.803235 3.684472 0.199273 0.019080 -0.000000 -0.364061 -3.095065 -4.120772 -0.273106 -6.812027 -4.126108 6.939893 -20.218038 48.526288 41.864955 -0.099735 0.000000 -0.002001 6.647891 -4.791768 -0.070483 -0.018152 -0.000000 -0.346363 -2.485430 4.553177 0.228619 -6.788243 1.597055 -1.853454 -9.489048 -44.712983 -31.812378 
